# xmcd
#
# Track frame offsets: 
#        150
#        22553
#        42341
#        55080
#        71322
#        89916
#        103752
#        132574
#        146688
#        166158
#        180285
#        198766
#        216143
#        234249
#        247603
#        270547
#        287355
#        307145
#        327412
#
# Disc length: 4524 seconds
#
# Revision: 0
# Processed by: cddbd v1.5.2PL0 Copyright (c) Steve Scherf et al.
# Submitted via: ExactAudioCopyFreeDBPlugin 1.0
#
DISCID=0211aa13
DTITLE=Natasha St-Pier - Tu trouveras... 10 ans de succès (Acte 1)
DYEAR=2009
DGENRE=Pop
TTITLE0=Tu trouveras
TTITLE1=L'instant T
TTITLE2=Je n'ai que mon âme
TTITLE3=Natasha St-Pier and Pascal Obispo - Mourir demain
TTITLE4=Un ange frappe à ma porte
TTITLE5=Nos rendez-vous
TTITLE6=Tant que c'est toi
TTITLE7=Vivre ou survivre
TTITLE8=Tu m'envoles
TTITLE9=Embrasse-moi
TTITLE10=Alors on se raccroche
TTITLE11=Ce silence
TTITLE12=1, 2, 3
TTITLE13=Tant que j'existerai
TTITLE14=Natasha St-Pier and Florent Pagny - Là-bas
TTITLE15=Haut les cœurs
TTITLE16=Trade it all
TTITLE17=Natasha St-Pier and Claude Dubois - Laisser l'été avoir 15 ans
TTITLE18=Natasha St-Pier, Jean Pierre Ferland and Marie-Elaine Thibert /
TTITLE18=Quand on aime on a vingt ans
EXTD=
EXTT0=
EXTT1=
EXTT2=
EXTT3=
EXTT4=
EXTT5=
EXTT6=
EXTT7=
EXTT8=
EXTT9=
EXTT10=
EXTT11=
EXTT12=
EXTT13=
EXTT14=
EXTT15=
EXTT16=
EXTT17=
EXTT18=
PLAYORDER=
